<?xml version="1.0" encoding="UTF-8" standalone="no"?>
<!-- Created with Inkscape (http://www.inkscape.org/) -->

<svg
   xmlns:dc="http://purl.org/dc/elements/1.1/"
   xmlns:cc="http://creativecommons.org/ns#"
   xmlns:rdf="http://www.w3.org/1999/02/22-rdf-syntax-ns#"
   xmlns:svg="http://www.w3.org/2000/svg"
   xmlns="http://www.w3.org/2000/svg"
   xmlns:sodipodi="http://sodipodi.sourceforge.net/DTD/sodipodi-0.dtd"
   xmlns:inkscape="http://www.inkscape.org/namespaces/inkscape"
   width="484.57697"
   height="469.04233"
   id="svg31018"
   version="1.1"
   inkscape:version="0.48.5 r10040"
   sodipodi:docname="404.svg">
  <defs
     id="defs31020" />
  <sodipodi:namedview
     inkscape:document-units="px"
     pagecolor="#ffffff"
     bordercolor="#666666"
     borderopacity="1.0"
     inkscape:pageopacity="0.0"
     inkscape:pageshadow="2"
     inkscape:zoom="0.80735502"
     inkscape:cx="239.45394"
     inkscape:cy="218.54938"
     inkscape:current-layer="layer1"
     id="namedview31022"
     showgrid="false"
     inkscape:window-width="1366"
     inkscape:window-height="751"
     inkscape:window-x="0"
     inkscape:window-y="0"
     inkscape:window-maximized="0"
     units="in"
     fit-margin-top="0"
     fit-margin-left="0"
     fit-margin-right="0"
     fit-margin-bottom="0" />
  <metadata
     id="metadata31024">
    <rdf:RDF>
      <cc:Work
         rdf:about="">
        <dc:format>image/svg+xml</dc:format>
        <dc:type
           rdf:resource="http://purl.org/dc/dcmitype/StillImage" />
        <dc:title />
      </cc:Work>
    </rdf:RDF>
  </metadata>
  <g
     inkscape:label="Layer 1"
     inkscape:groupmode="layer"
     id="layer1"
     transform="translate(0.46626402,0.55345787)">
    <text
       xml:space="preserve"
       style="font-size:59.58847809px;font-style:normal;font-variant:normal;font-weight:bold;font-stretch:normal;line-height:125%;letter-spacing:0px;word-spacing:0px;fill:#2b2200;fill-opacity:1;stroke:none;font-family:Nicesymbols;-inkscape-font-specification:Nicesymbols Bold"
       x="163.95599"
       y="454.91711"
       id="text30984"
       sodipodi:linespacing="125%"
       transform="matrix(0.99922873,0.0380898,-0.03808632,0.99932004,0,0)"><tspan
         sodipodi:role="line"
         id="tspan30986"
         x="163.95599"
         y="454.91711">404</tspan></text>
    <path
       style="fill:#523d2c;fill-opacity:1;stroke:none"
       d="m 15.589017,351.81162 c 1.927729,1.30036 3.501906,2.69432 8.432897,3.7086 L 437.89637,336.92798 c 4.25597,-0.22685 10.12696,-2.91018 10.12696,-5.63205 l 0,-3.77893 0,-48.10983 L -0.04355937,292.6451 11.096835,344.62062 c 1.40557,3.49903 2.935592,5.50453 4.492182,7.191 z"
       id="path3926"
       inkscape:connector-curvature="0"
       sodipodi:nodetypes="ccccccccc"
       inkscape:export-filename="/media/multimedia/estudio/tis/2014/cartas/img/logo.png"
       inkscape:export-xdpi="90"
       inkscape:export-ydpi="90" />
    <path
       style="fill:#523d2c;fill-opacity:1"
       d="m 82.86343,281.60519 c 15.268168,-0.93744 39.29146,-2.42559 53.38514,-3.30692 37.29218,-2.33215 146.57186,-4.93461 199.40631,-4.7488 36.40522,0.12798 46.26024,-0.30077 48.63368,-2.11741 1.63706,-1.25295 4.33893,-9.21984 6.00406,-17.70425 4.96741,-25.3103 11.3722,-61.37946 15.07237,-84.88142 1.91039,-12.13421 4.33534,-23.70819 5.38873,-25.71991 3.5279,-6.73724 3.34489,-6.86236 -44.94901,-30.71753 -8.80854,-4.35102 -17.93737,-8.70726 -20.28634,-9.68042 -4.62214,-1.91503 -58.24425,-28.619267 -67.71298,-33.721622 -3.1824,-1.714844 -13.2722,-5.641107 -22.42178,-8.72495 -9.14957,-3.083806 -16.93617,-6.720659 -17.30355,-8.081851 -0.51627,-1.912884 -2.71646,-1.288971 -9.68801,2.747187 C 213.07157,63.817035 207.6313,65.4633 89.399468,97.006566 65.290639,103.43861 63.752187,103.64914 61.10532,100.87889 56.782266,96.354345 57.710178,94.259587 65.246344,91.530682 72.664753,88.844409 102.95652,80.64288 139.45169,71.439397 c 12.33195,-3.109893 24.09031,-6.366312 26.12976,-7.236484 2.03937,-0.870171 5.17546,-1.582125 6.96902,-1.582125 1.7936,0 4.92968,-0.67241 6.96909,-1.494258 2.03939,-0.82185 9.47353,-3.407177 16.52038,-5.745174 14.18622,-4.706693 13.58204,-4.444688 27.96649,-12.126854 15.17252,-8.103048 19.33651,-8.98491 24.34079,-5.155082 2.30123,1.761155 3.69081,4.185908 3.08794,5.388295 -0.72725,1.450342 3.42192,3.708415 12.327,6.708622 11.56429,3.896153 31.37125,13.349673 79.63928,38.010491 5.88257,3.005514 11.64816,5.513313 12.81246,5.573012 1.1643,0.05967 6.44114,2.594347 11.72621,5.632609 5.28513,3.038291 14.79681,7.953431 21.13702,10.922631 6.34024,2.96916 13.09029,6.13393 15.00005,7.03275 1.9098,0.89883 10.1754,4.92961 18.36799,8.95723 8.19264,4.02769 16.57509,8.07245 18.62776,8.98834 26.78153,14.66515 17.11466,7.38201 42.46715,22.60343 1.49651,2.73307 0.0312,8.41832 -4.18053,8.41832 -29.75847,-11.11812 -18.42696,-9.6043 -49.58882,-21.54807 -3.37135,-0.67474 -3.24808,-1.16489 -14.8901,59.19544 -1.04022,5.39297 -2.94475,16.05645 -4.23234,23.6965 -2.29016,13.58837 -5.68673,30.92077 -7.71542,39.37099 l -1.01672,4.23482 c 30.70851,2.21582 45.42438,-8.5648 46.10718,15.27893 -24.2105,4.47882 12.44787,-2.38399 -14.47231,-1.97071 -33.64259,0.28409 -33.68802,0.28931 -35.67631,4.29177 -1.09496,2.204 -4.79824,5.11835 -8.2295,6.47625 -5.77955,2.28732 -6.52016,2.23101 -10.06278,-0.76479 -3.67804,-3.11035 -3.6727,-3.31855 0.13981,-5.45209 3.84643,-2.1525 3.84133,-2.24731 -0.17205,-3.19585 -6.08013,-1.43695 -218.65508,1.74905 -241.16621,3.61459 -10.57027,0.87596 -33.63267,2.41705 -51.249752,3.42462 -17.617119,1.0076 -41.640415,2.50162 -53.385173,3.31998 C 22.00433,297.1259 25.667212,297.32744 9.2245848,298.2938 -25.431861,286.58798 40.818006,284.18809 82.863515,281.60519 z M 456.45747,135.55244 c -24.20542,-12.61628 -86.0399,-43.515335 -87.08183,-43.515335 -0.61953,0 -11.6886,-5.331682 -24.59797,-11.848234 -12.90933,-6.516515 -26.63849,-13.319042 -30.50915,-15.116724 -3.87072,-1.797647 -9.09027,-4.371597 -11.59899,-5.71985 -9.76808,-5.249575 -19.80322,-10.161521 -46.687,-22.852035 -12.18888,-5.753778 -15.47677,-6.659679 -18.65585,-5.14027 -2.12256,1.014477 -4.94463,1.844477 -6.27132,1.844477 -1.32669,0 -6.91793,2.531285 -12.42509,5.625152 -13.04113,7.326328 -30.91666,13.473754 -66.36617,22.823382 -15.85539,4.181815 -42.28102,11.371711 -58.723642,15.977633 -16.442628,4.605922 -33.129788,8.444629 -37.082607,8.530483 -9.054118,0.196686 -13.70575,-4.165824 -8.604556,-8.06978 1.845072,-1.412081 30.656799,-9.58062 64.025985,-18.152419 33.36912,-8.571693 66.91726,-17.975366 74.55134,-20.896933 18.98265,-7.264792 33.89207,-14.372753 35.06837,-16.718625 1.10915,-2.212006 -17.86331,-10.364034 -24.12056,-10.364034 -5.52088,0 -8.11861,-7.7682997 -3.72268,-11.1324974 2.84698,-2.1788438 4.7,-1.9599222 16.67371,1.9700514 14.57727,4.7844303 37.03596,14.91879 77.32695,34.893175 9.50906,4.714151 18.41036,8.575058 19.78058,8.579742 1.37015,0.0035 2.81158,0.586727 3.20309,1.293306 0.81102,1.463871 13.55679,8.520701 15.38972,8.520701 0.6634,0 1.47602,-9.008705 1.80574,-20.019444 l 0.59957,-20.019411 24.55718,0.143618 c 13.50645,0.07943 32.44617,0.733774 42.08832,1.454678 l 17.53112,1.310754 1.2635,6.716498 c 0.695,3.694089 0.97391,18.036248 0.61988,31.871529 -0.5564,21.742198 -1.14533,25.396776 -4.34065,26.937242 -2.81596,1.357583 -4.47397,1.187504 -6.9582,-0.713656 -2.51419,-1.924123 -3.57908,-8.390306 -4.64862,-28.22621 -0.76301,-14.151679 -2.035,-26.036685 -2.82667,-26.411151 -0.79169,-0.374431 -12.65137,-1.084895 -26.35487,-1.578761 l -24.91545,-0.897886 0,16.350192 c 0,10.555275 -0.81234,16.350193 -2.29192,16.350193 -4.80467,0 -0.58154,5.391069 6.854,8.749474 17.89571,8.082996 41.65387,19.810547 45.75762,22.586976 2.42466,1.640404 5.39872,2.982585 6.60907,2.982585 1.2104,0 3.93996,1.470775 6.06574,3.268457 2.12579,1.797649 4.7159,3.268487 5.75592,3.268487 1.04002,0 4.49462,1.37854 7.67681,3.06342 3.18225,1.68487 16.5964,8.4612 29.80926,15.05848 24.35038,12.15835 28.04468,15.73432 21.46083,20.77302 -3.54011,2.70924 -3.78747,2.65325 -15.69051,-3.55079 z"
       id="path4216"
       inkscape:connector-curvature="0"
       sodipodi:nodetypes="csscsssscsssssssssssssscsscssssccccsssccccsscsssscccsscssssssscssscscssccssccsccsssscscsssssssssscc"
       inkscape:export-filename="/media/multimedia/estudio/tis/2014/cartas/img/logo.png"
       inkscape:export-xdpi="90"
       inkscape:export-ydpi="90" />
    <text
       xml:space="preserve"
       style="font-size:277.99395752px;font-style:normal;font-weight:normal;line-height:125%;letter-spacing:0px;word-spacing:0px;fill:#f78f28;fill-opacity:1;stroke:none;font-family:Aerospace;-inkscape-font-specification:Aerospace"
       x="35.739868"
       y="290.12747"
       id="text4246-2"
       sodipodi:linespacing="125%"
       transform="scale(1.165873,0.85772637)"
       inkscape:export-filename="/media/multimedia/estudio/tis/2014/cartas/img/logo.png"
       inkscape:export-xdpi="90"
       inkscape:export-ydpi="90"><tspan
         sodipodi:role="line"
         id="tspan4248-7"
         x="35.739868"
         y="290.12747"
         style="font-style:normal;font-variant:normal;font-weight:normal;font-stretch:normal;fill:#f78f28;fill-opacity:1;stroke:none;font-family:Aerospace;-inkscape-font-specification:Aerospace">S</tspan></text>
    <text
       xml:space="preserve"
       style="font-size:103.11009216px;font-style:normal;font-weight:normal;line-height:125%;letter-spacing:0px;word-spacing:0px;fill:#f78f28;fill-opacity:1;fill-rule:nonzero;stroke:none;font-family:Aerospace;-inkscape-font-specification:Aerospace"
       x="308.67569"
       y="213.35571"
       id="text3150"
       sodipodi:linespacing="125%"
       transform="matrix(0.99995427,0,-0.34832554,1.0000457,0,0)"
       inkscape:export-filename="/media/multimedia/estudio/tis/2014/cartas/img/logo.png"
       inkscape:export-xdpi="90"
       inkscape:export-ydpi="90"><tspan
         sodipodi:role="line"
         id="tspan3152"
         x="308.67569"
         y="213.35571"
         style="font-size:103.11009216px;font-style:italic;font-variant:normal;font-weight:bold;font-stretch:normal;fill:#f78f28;fill-opacity:1;fill-rule:nonzero;stroke:none;font-family:Aerospace;-inkscape-font-specification:Aerospace">oft</tspan></text>
    <text
       xml:space="preserve"
       style="font-size:57.63444901px;font-style:italic;font-variant:normal;font-weight:bold;font-stretch:normal;line-height:125%;letter-spacing:0px;word-spacing:0px;fill:#f2be00;fill-opacity:1;stroke:none;font-family:Sayer Script MN;-inkscape-font-specification:Sayer Script MN"
       x="52.085297"
       y="345.31894"
       id="text4250"
       sodipodi:linespacing="125%"
       transform="matrix(1.000996,-0.07041027,0,0.99900504,0,0)"
       inkscape:transform-center-x="-5.1702154"
       inkscape:transform-center-y="6.5255085"
       inkscape:export-filename="/media/multimedia/estudio/tis/2014/cartas/img/logo.png"
       inkscape:export-xdpi="90"
       inkscape:export-ydpi="90"><tspan
         sodipodi:role="line"
         id="tspan4252"
         x="52.085297"
         y="345.31894"
         style="font-size:57.63444901px;font-style:italic;font-variant:normal;font-weight:bold;font-stretch:normal;fill:#f2be00;fill-opacity:1;stroke:none;font-family:Sayer Script MN;-inkscape-font-specification:Sayer Script MN"><tspan
           style="font-size:57.63444901px;font-style:italic;font-variant:normal;font-weight:bold;font-stretch:normal;fill:#f2be00;fill-opacity:1;stroke:none;font-family:Sayer Script MN;-inkscape-font-specification:Sayer Script MN"
           id="tspan4375"><tspan
             style="font-size:57.63444901px;font-style:italic;font-variant:normal;font-weight:bold;font-stretch:normal;fill:#f2be00;fill-opacity:1;stroke:none;font-family:Sayer Script MN;-inkscape-font-specification:Sayer Script MN"
             id="tspan4377"><tspan
               style="font-size:57.63444901px;font-style:italic;font-variant:normal;font-weight:bold;font-stretch:normal;fill:#f2be00;fill-opacity:1;stroke:none;font-family:Sayer Script MN;-inkscape-font-specification:Sayer Script MN"
               id="tspan4379"><tspan
                 style="font-size:57.63444901px;font-style:italic;font-variant:normal;font-weight:bold;font-stretch:normal;fill:#f2be00;fill-opacity:1;stroke:none;font-family:Sayer Script MN;-inkscape-font-specification:Sayer Script MN"
                 id="tspan4381"><tspan
                   style="font-size:57.63444901px;font-style:italic;font-variant:normal;font-weight:bold;font-stretch:normal;fill:#f2be00;fill-opacity:1;stroke:none;font-family:Sayer Script MN;-inkscape-font-specification:Sayer Script MN"
                   id="tspan4383"><tspan
                     style="font-size:57.63444901px;font-style:italic;font-variant:normal;font-weight:bold;font-stretch:normal;fill:#f2be00;fill-opacity:1;stroke:none;font-family:Sayer Script MN;-inkscape-font-specification:Sayer Script MN"
                     id="tspan4385"><tspan
                       style="font-size:57.63444901px;font-style:italic;font-variant:normal;font-weight:bold;font-stretch:normal;fill:#f2be00;fill-opacity:1;stroke:none;font-family:Sayer Script MN;-inkscape-font-specification:Sayer Script MN"
                       id="tspan4387"><tspan
                         style="font-size:57.63444901px;font-style:italic;font-variant:normal;font-weight:bold;font-stretch:normal;fill:#f2be00;fill-opacity:1;stroke:none;font-family:Sayer Script MN;-inkscape-font-specification:Sayer Script MN"
                         id="tspan4389">Work at Home </tspan></tspan></tspan></tspan></tspan></tspan></tspan></tspan></tspan></text>
    <text
       xml:space="preserve"
       style="font-size:81.16252136px;font-style:normal;font-weight:normal;line-height:125%;letter-spacing:0px;word-spacing:0px;fill:#008080;fill-opacity:1;stroke:none;font-family:Aerospace;-inkscape-font-specification:Aerospace"
       x="5.0422134"
       y="491.28278"
       id="text4246-2-1"
       sodipodi:linespacing="125%"
       transform="matrix(1.1839911,-0.06970583,0.04954393,0.84168411,0,0)"
       inkscape:export-filename="/media/multimedia/estudio/tis/2014/cartas/img/logo.png"
       inkscape:export-xdpi="90"
       inkscape:export-ydpi="90"><tspan
         sodipodi:role="line"
         id="tspan4248-7-6"
         x="5.0422134"
         y="491.28278"
         style="font-style:normal;font-variant:normal;font-weight:normal;font-stretch:normal;fill:#008080;fill-opacity:1;stroke:none;font-family:Aerospace;-inkscape-font-specification:Aerospace">TIS 2014</tspan></text>
  </g>
</svg>
